<?xml version="1.0" encoding="utf-8"?>
<!-- Generator: Adobe Illustrator 27.8.0, SVG Export Plug-In . SVG Version: 6.00 Build 0)  -->
<svg version="1.1" id="WORTMARKE" xmlns="http://www.w3.org/2000/svg" xmlns:xlink="http://www.w3.org/1999/xlink" x="0px" y="0px"
	 viewBox="0 0 2011 924" style="enable-background:new 0 0 2011 924;" xml:space="preserve">
<style type="text/css">
	.st0{fill:#FFFFFF;}
</style>
<g>
	<g>
		<path class="st0" d="M465.7,169c0.1-64.5,49.2-118.6,115.2-117.1c42,1,78,24.1,97.4,61.2c-16.5,7.7-32.9,15.4-49.4,23.1
			c-8.7-18.8-26.2-32-47.2-32.6c-36.7-0.9-55.8,33.6-55.9,66.3c0,32.6,21.6,64.2,56.5,65.2c21.4,0.6,42.8-10.8,46.6-33.4
			c-16.2-0.5-32.4-1-48.6-1.4c0-15.3,0-30.5,0-45.8c36.3,1,72.6,2,108.9,3.2c4.9,68.4-37.9,128.7-110.3,126.3
			C516.7,282,465.7,231.8,465.7,169z"/>
		<path class="st0" d="M715.8,59c30.6,0.7,61.2,1.3,91.8,3.1c37.9,1.5,65,37.3,65.3,73.2c0.2,30.1-15.5,55.3-45,63.9
			c22.1,32.8,44.2,65.7,66.4,98.4c-23.4-2.5-46.9-4.9-70.4-6.8c-17-29.6-34.5-59-52.1-88.4c0,28.3-0.1,56.5-0.1,84.8
			c-18.7-0.9-37.5-1.6-56.2-2.4C715.7,209.6,715.8,134.3,715.8,59z M780.7,163.5c19.8,1.5,34.2-7.9,34.2-28.7
			c0-15.5-12.5-26.6-27.8-26.5c-6-0.3-9-0.4-15-0.7c0,18.5-0.1,37-0.1,55.5C775.5,163.2,777.2,163.3,780.7,163.5z"/>
		<path class="st0" d="M981.5,79.2c20.1,2.2,40.1,4.4,60.2,6.3c27.2,77.7,54.9,155.2,83,232.6c-20.3-1-40.5-2.4-60.8-4
			c-4.8-14.1-9.6-28.3-14.4-42.5c-27.4-2.4-54.7-5.1-82-7.8c-4.9,13.3-9.9,26.6-14.8,40c-19.5-1.6-38.9-4.2-58.3-6.3
			C923.4,224.8,952.4,152,981.5,79.2z M1034,225.7c-8.1-24.2-16.1-48.3-24.1-72.5c-0.2,0-0.4,0-0.6-0.1
			c-8.5,22.5-16.9,45.1-25.4,67.6C1000.6,222.5,1017.3,224.2,1034,225.7z"/>
		<path class="st0" d="M1143.1,92.2c20,0.8,40,1.8,60,3c32.6,47.1,65.2,94.1,98.3,140.8c0.2-0.1,0.4-0.2,0.6-0.3
			c0-44.8,0.1-89.7,0.2-134.5c19.1,1,38.2,1.8,57.4,2.5c-0.2,74.9-0.2,149.7-0.2,224.6c-19.2-0.3-38.5-0.9-57.7-1.6
			c-33.9-47.5-67.2-95.3-100.5-143.2c-0.2,0.1-0.4,0.2-0.6,0.3c-0.1,46-0.1,92-0.2,138c-19.2-1-38.4-2-57.6-2.8
			C1142.8,243.4,1142.9,167.8,1143.1,92.2z"/>
		<path class="st0" d="M1485,102.4c59.1-1.9,108.8,45.5,108.8,105c0,61.2-50.4,117.9-113.1,119c-28.5,0.9-57,1.6-85.5,1.9
			c0-74.7,0-149.4,0.2-224.1C1425.3,104.3,1455.1,103.6,1485,102.4z M1474.4,277.5c36.2-0.3,57.1-33.6,57-66.8
			c-0.1-35.6-24.8-60.4-60.9-58.4c-7,0.2-10.4,0.3-17.4,0.5c0,41.7,0.1,83.5,0.1,125.2C1461.7,277.9,1466,277.8,1474.4,277.5z"/>
		<path class="st0" d="M320.5,348.4c31.4-2.1,62.8-3.5,94.3-4.1c41.9-0.9,73.6,29.1,73.6,71.2c0,44.1-25.9,76.9-71.6,77.7
			c-13.1,0.3-26.2,0.7-39.3,1.2c0,25.1,0,50.2,0,75.3c-19,0.9-37.9,2-56.9,3.2C320.5,498.1,320.5,423.3,320.5,348.4z M401.3,446.3
			c15.6-0.6,26.4-12.3,26.4-27.9c0.1-15.8-10.6-26.9-26.4-26.5c-9.5,0.2-14.3,0.4-23.9,0.8c0,18.2,0,36.3,0,54.5
			C387,446.7,391.8,446.6,401.3,446.3z"/>
		<path class="st0" d="M513,344.3c30.5,0.5,61,1.2,91.5,2.1c37.1,0.3,65.5,32.6,65.9,68.5c0.4,30.3-15.9,55.4-45,64.9
			c22.4,31.2,44.8,62.4,67.1,93.7c-23.6-1.2-47.2-2.3-70.8-3.2c-17.4-28.5-35-57-52.6-85.4c0,27.9,0,55.9,0,83.8
			c-18.7-0.4-37.4-0.7-56.1-0.8C513,493.3,513,418.8,513,344.3z M577.8,446.3c19.6,1,34.3-8.6,34.2-29.2c0-15.3-13-25.5-27.9-25.1
			c-6-0.2-9-0.2-15-0.4c0,18.2,0,36.3,0,54.5C572.6,446.2,574.3,446.2,577.8,446.3z"/>
		<path class="st0" d="M766.1,353c-0.1,75-0.1,149.9-0.2,224.9c-18.7-1.2-37.4-2.3-56.1-3.4c0-74.7,0-149.4,0.1-224.1
			C728.6,351.2,747.3,352.1,766.1,353z"/>
		<path class="st0" d="M874.4,408c-9.9-1.4-20.4,4.1-20.6,15c-0.3,15.9,24.1,22.2,35.4,26.6c29.8,11.6,57.2,32.9,57.1,67.7
			c-0.1,46.9-35.7,77.4-82,72.6c-26.8-2.8-52.6-14.5-74-30.7c8.7-15.7,17.2-31.5,25.7-47.3c13.4,11,29.3,21.3,46.5,23.4
			c10.9,1.3,22.6-4.6,22.4-16.8c-0.2-16-21.2-23-33.3-27.2c-30.7-10.8-56.6-32.3-56.2-67.2c0.5-42.7,33-71.2,75.5-66.6
			c23.1,2.5,46.3,13.3,64,28.2c-7.7,14.5-15.5,28.9-23.1,43.4C900.8,419,889.4,410.2,874.4,408z"/>
		<path class="st0" d="M996.5,374.1c18.2,1.7,36.3,3.3,54.5,4.9c16.3,42.4,32.6,84.8,48.9,127.3c0.4,0,0.5,0,0.9,0.1
			c16.2-40.3,32.4-80.7,48.5-121.1c18.7,0.9,37.4,1.9,56,2.8c12.3,75.6,24.7,151.2,37.2,226.8c-19.9-0.8-39.7-1.7-59.5-2.8
			c-5.8-42.4-11.6-84.8-17.5-127.2c-0.4-0.1-0.5-0.2-0.9-0.3c-16.7,41.2-33.3,82.5-50,123.7c-9.5-0.6-18.9-1.3-28.4-2
			c-16.5-43.1-33.2-86.2-49.6-129.3c-0.4,0.1-0.5,0.1-0.9,0.2c-5.6,41.2-11.2,82.4-16.8,123.6c-19.3-1.6-38.5-3.3-57.8-4.9
			C972.7,522,984.6,448.1,996.5,374.1z"/>
		<path class="st0" d="M1339.5,393.5c20.2,0.4,40.3,0.5,60.5,0.3c27.7,73.8,55.9,147.4,84.4,220.8c-20.5,0.6-41.1,1.2-61.6,1.9
			c-4.8-13.5-9.6-27-14.4-40.5c-27.5,0.5-54.9,0.5-82.4,0.2c-5,13.6-9.9,27.2-14.9,40.8c-19.9-0.4-39.8-1-59.7-1.8
			C1280.7,541.3,1310.3,467.5,1339.5,393.5z M1392.8,532.2c-8.2-23-16.3-45.9-24.4-68.9c-0.2,0-0.4,0-0.6,0
			c-8.5,23-16.9,45.9-25.4,68.9C1359.2,532.4,1376,532.5,1392.8,532.2z"/>
		<path class="st0" d="M1508.4,440.3c-16.1,0.5-32.2,1-48.3,1.5c-0.1-16.5-0.1-32.9-0.2-49.4c51.8-1.5,103.6-3.5,155.4-5.4
			c0.1,16.5,0.3,33,0.4,49.5c-16,0.6-32,1.2-48.1,1.8c0.4,58,0.6,116,0.7,174c-19.8,0.7-39.6,1.3-59.4,1.7
			C1508.9,556.1,1508.7,498.2,1508.4,440.3z"/>
		<path class="st0" d="M1698.2,383.5c1,74.1,1.8,148.3,2.1,222.4c-20,1.3-40,2.4-60.1,3.4c-0.1-74.4-0.7-148.8-1.5-223.2
			C1658.5,385.3,1678.4,384.4,1698.2,383.5z"/>
		<path class="st0" d="M1727.2,494.1c-0.7-68.9,56.6-118.8,122.5-124.8c16.8-1.5,34.4-0.8,50.4,4.9c0.4,21,0.8,42,1.1,63
			c-0.2,0.1-0.3,0.2-0.6,0.4c-15.8-10.4-30.7-15.9-50-14.1c-32.7,3.1-59.6,31.2-59.2,64.3c0.3,32,27.6,57.3,59.7,54.2
			c19.6-1.9,38.5-13.7,50.9-28.9c0.2,0.1,0.4,0.1,0.6,0.2c0.1,21.9,0.2,43.9,0.2,65.8c-15.7,10.4-34.1,15.5-52.1,17.8
			C1788,605.2,1727.9,561,1727.2,494.1z"/>
		<path class="st0" d="M110.6,698.5c-10.2,0.1-21.4,6.2-21.6,17.5c-0.3,16,26.3,19.2,37.3,21.6c30.7,6.9,56.6,24.5,56.6,58.7
			c0.1,47.3-33.3,84-81.2,84.4c-28.8,0.3-58.9-9.3-83.2-24.9c9.9-16,19.6-32.1,29.2-48.3c15.4,10,32.6,19.3,51.5,18.8
			c12.1-0.3,23.1-6.5,23.3-19.6c0.2-16.6-23.6-20.4-35.4-23c-31.6-6.9-63.6-25.4-63.2-61.6c0.5-45.1,40.4-71.6,82.4-73.1
			c22.2-0.8,46.1,5.2,64.6,17.7c-7.4,15.7-14.8,31.3-22.3,47C138.4,704.4,124.6,698.5,110.6,698.5z"/>
		<path class="st0" d="M209,647c30-2.2,60-4.5,89.9-6.7c41.8-3.2,73.2,25.3,73.2,67.4c0,44.2-25.2,79.2-71.1,82.3
			c-12.5,0.9-24.9,1.8-37.4,2.7c0.1,25.4,0.1,50.7,0.2,76.1c-17.9,1.3-35.8,2.5-53.7,3.6C209.8,797.3,209.4,722.2,209,647z
			 M286,743.4c15.6-1.6,26-13.8,26.1-29.4c0.1-15.7-10.5-26.3-26.2-25.3c-9,0.7-13.5,1-22.5,1.7c0,18.2,0.1,36.5,0.1,54.7
			C272.6,744.4,277.1,744.1,286,743.4z"/>
		<path class="st0" d="M397,634.8c31-1,62-1.3,93.1-1.4c37.2-1,65.8,30.8,66.3,66.8c0.4,30.4-16.2,56.1-45,66.5
			c22.6,30.6,45,61.5,67.4,92.3c-23.7-0.6-47.4-1-71.2-1c-17.8-28.2-35.9-56-54-84c0,28.2,0,56.4,0,84.5c-18.9,0.4-37.7,1-56.6,1.8
			C397,785,397,709.9,397,634.8z M462.5,734.7c19.9,0.2,35.2-9.5,35.2-30.6c0-15.7-13.6-25.2-28.6-24.3c-6.2,0-9.2,0.1-15.4,0.1
			c0,18.3,0,36.5,0,54.8C457.2,734.7,459,734.7,462.5,734.7z"/>
		<path class="st0" d="M651.8,637.1c0,75,0,150,0.1,225c-18.6-1-37.2-1.9-55.8-2.6c-0.1-74.8-0.1-149.7-0.1-224.5
			C614.6,635.5,633.2,636.2,651.8,637.1z"/>
		<path class="st0" d="M686.2,638.8c19.2,1.1,38.4,2.3,57.6,3.5c31.7,47.1,62.7,94.6,92.9,142.7c0.2-0.1,0.3-0.2,0.6-0.3
			c0.1-45,0.2-90.1,0.3-135.1c18.2,1.7,36.5,3.5,54.7,5.4c-0.2,75.9-0.4,151.9-0.6,227.8c-18.3-2-36.6-3.9-54.9-5.7
			c-30.8-49.7-62.2-98.8-94.7-147.4c-0.2,0.1-0.3,0.2-0.6,0.3c0,46.1,0,92.3,0,138.4c-18.4-1.5-36.8-3-55.3-4.3
			C686.2,789.1,686.2,714,686.2,638.8z"/>
		<path class="st0" d="M918.7,774.5c0.1-66.2,52.8-115.5,119.1-110.1c43.3,3.6,81.1,27.8,101.8,66.1c-17.1,7.1-34.3,14.1-51.5,21
			c-9.2-19.6-27.6-33.5-49.4-35.3c-37.3-3.1-58.1,29.8-58.1,63.6c0,34.1,23.1,66.5,58.7,69.4c21.6,1.7,44.7-8.2,48.8-31.6
			c-17-1.3-33.9-2.6-50.9-3.9c0-15.4,0-30.9,0-46.3c37.9,3,75.8,5.9,113.8,8.3c5.4,70.9-41.4,129.1-115.2,123.2
			C971.1,893.7,918.6,840.1,918.7,774.5z"/>
	</g>
</g>
</svg>
